HIERARCHY
ROOT hip
{
	OFFSET 0.000000 0.000000 0.000000 
	CHANNELS 6 Xposition Yposition Zposition Xrotation Zrotation Yrotation
	JOINT abdomen
	{
		OFFSET 0.000000 3.402643 0.000000 
		CHANNELS 3 Xrotation Zrotation Yrotation
		JOINT chest
		{
			OFFSET 0.000000 8.438565 -0.680529 
			CHANNELS 3 Xrotation Zrotation Yrotation
			JOINT neck
			{
				OFFSET 0.000000 10.207942 -0.272212 
				CHANNELS 3 Xrotation Zrotation Yrotation
				JOINT head
				{
					OFFSET 0.000000 3.130431 0.000000 
					CHANNELS 3 Xrotation Zrotation Yrotation
					End Site
					{
						OFFSET 0.000000 3.130435 0.000000 
					}
				}
			}
			JOINT lCollar
			{
				OFFSET 3.470700 6.669187 -0.816635 
				CHANNELS 3 Yrotation Zrotation Xrotation
				JOINT lShldr
				{
					OFFSET 3.198488 0.000000 0.000000 
					CHANNELS 3 Zrotation Yrotation Xrotation
					JOINT lForeArm
					{
						OFFSET 10.139888 0.000000 0.000000 
						CHANNELS 3 Yrotation Zrotation Xrotation
						JOINT lHand
						{
							OFFSET 8.370511 0.000000 0.000000 
							CHANNELS 3 Zrotation Yrotation Xrotation
							End Site
							{
								OFFSET 4.083176 0.000000 0.000000 
							}
						}
					}
				}
			}
			JOINT rCollar
			{
				OFFSET -3.470700 6.669187 -0.816635 
				CHANNELS 3 Yrotation Zrotation Xrotation
				JOINT rShldr
				{
					OFFSET -3.198488 0.000000 0.000000 
					CHANNELS 3 Zrotation Yrotation Xrotation
					JOINT rForeArm
					{
						OFFSET -10.139888 0.000000 0.000000 
						CHANNELS 3 Yrotation Zrotation Xrotation
						JOINT rHand
						{
							OFFSET -8.370511 0.000000 0.000000 
							CHANNELS 3 Zrotation Yrotation Xrotation
							End Site
							{
								OFFSET -4.083176 0.000000 0.000000 
							}
						}
					}
				}
			}
		}
	}
	JOINT lThigh
	{
		OFFSET 5.308129 -1.633274 1.361059 
		CHANNELS 3 Xrotation Zrotation Yrotation
		JOINT lShin
		{
			OFFSET -2.041588 -20.007561 0.000000 
			CHANNELS 3 Xrotation Zrotation Yrotation
			JOINT lFoot
			{
				OFFSET 0.000000 -19.190928 -1.224953 
				CHANNELS 3 Xrotation Yrotation Zrotation
				End Site
				{
					OFFSET 0.000000 -2.449906 4.627600 
				}
			}
		}
	}
	JOINT rThigh
	{
		OFFSET -5.308129 -1.633274 1.361059 
		CHANNELS 3 Xrotation Zrotation Yrotation
		JOINT rShin
		{
			OFFSET 2.041588 -20.007561 0.000000 
			CHANNELS 3 Xrotation Zrotation Yrotation
			JOINT rFoot
			{
				OFFSET 0.000000 -19.190928 -1.224953 
				CHANNELS 3 Xrotation Yrotation Zrotation
				End Site
				{
					OFFSET 0.000000 -2.449906 4.627600 
				}
			}
		}
	}
}
MOTION
Frames: 18
Frame Time: 0.066667
-0.647010 47.736515 -4.964150 3.972564 0.000000 7.120914 22.297600 0.000000 0.000000 -0.273364 0.000000 0.000000 -16.000000 0.000000 0.000000 -12.453246 0.000000 40.412666 2.021920 23.309700 -0.063351 -101.294342 -45.413254 15.991599 -128.149155 -6.938097 -50.852295 -35.030499 -32.752365 6.175700 -2.021920 -16.309700 -0.063351 103.203278 36.440643 11.991600 130.884933 12.451349 -40.852299 23.030500 34.422951 -15.824300 -39.473526 -3.014976 -17.639170 53.500385 -4.165127 -4.806204 -19.883400 -4.288319 -2.949143 -37.846024 -1.073954 10.709991 54.011501 4.068685 4.622252 -21.492352 -0.284219 0.600375 
-0.657595 47.735382 -5.051791 3.986712 0.000000 7.125227 22.505157 0.000000 0.000000 -0.192353 0.000000 0.000000 -16.000000 0.000000 0.000000 -12.615280 0.000000 41.486534 2.021920 23.309698 -0.063351 -101.299774 -45.442486 15.991599 -128.165283 -6.951077 -50.852299 -31.051100 -32.748039 16.175699 -2.021920 -16.309700 -0.063351 103.207924 36.440414 11.991600 130.901703 12.444319 -40.852299 19.030500 34.434311 -1.824300 -39.601521 -3.036797 -17.657202 53.382542 -4.170298 -4.797989 -19.635418 -4.278325 -2.996053 -37.979408 -1.000784 10.872646 53.972431 4.066468 4.617636 -21.333115 -0.462316 0.664915 
-0.666714 47.736801 -5.127329 4.000000 0.000000 7.129540 22.691500 0.000000 0.000000 -0.123399 0.000000 0.000000 -16.000000 0.000000 0.000000 -12.753200 0.000000 42.560398 2.021920 23.309700 -0.063351 -101.305206 -45.473969 15.991600 -128.181412 -6.964057 -50.852299 -35.030499 -32.743713 6.175700 -2.021920 -16.309700 -0.063351 103.212570 36.440186 11.991600 130.918472 12.437288 -40.852299 23.030500 34.445671 -15.824300 -39.528214 -3.030826 -17.715485 53.039925 -4.171034 -4.757606 -19.342720 -4.242754 -3.047078 -38.093250 -0.932094 11.037381 53.854660 4.071071 4.609262 -21.103796 -0.647785 0.728935 
-0.674135 47.740673 -5.188469 4.008549 0.000000 3.716338 22.852121 0.000000 0.000000 -0.068085 0.000000 0.000000 -16.000000 0.000000 0.000000 -12.863833 0.000000 43.634300 2.021920 23.309702 -0.063351 -101.310646 -45.507454 15.991600 -128.197540 -6.977037 -50.852303 -31.051100 -32.739384 16.175699 -2.021920 -16.309700 -0.063351 103.217224 36.439953 11.991600 130.935242 12.430257 -40.852299 19.030500 34.457027 -1.824300 -39.329208 -2.375264 -17.800810 53.265110 -4.167644 -4.786067 -19.666199 -1.128542 -3.252024 -38.550632 -0.413212 10.862228 53.736794 4.084034 4.595242 -20.453623 2.633312 0.601910 
-0.679513 47.750893 -5.237237 4.011482 0.000000 -2.516153 22.970278 0.000000 0.000000 -0.028010 0.000000 0.000000 -16.000000 0.000000 0.000000 -12.943981 0.000000 7.027906 2.021920 23.309700 -0.063351 -101.316086 -45.542698 15.991600 -128.213669 -6.990017 -50.852303 -35.030499 -32.735054 6.175700 -2.021920 -16.309700 -0.063351 103.221878 36.439720 11.991600 130.952011 12.423225 -40.852299 23.030500 34.468384 -15.824300 -38.729130 -1.196397 -17.926546 53.735081 -4.167014 -4.838123 -20.490280 4.543549 -3.563205 -39.154892 0.710026 10.646173 53.247093 4.088910 4.543805 -19.186308 8.394760 0.277790 
-0.682467 47.772331 -5.276748 4.008674 0.000000 -9.143081 23.026171 0.000000 0.000000 -0.004781 0.000000 0.000000 -16.000000 0.000000 0.000000 -12.990438 0.000000 -29.981199 2.021920 23.309700 -0.063351 -101.321518 -45.579449 15.991601 -128.229797 -7.002997 -50.852303 -31.051100 -32.730728 16.175699 -2.021920 -16.309700 -0.063351 103.226524 36.439491 11.991600 130.968781 12.416195 -40.852299 18.971701 34.479744 -1.838690 -38.025753 -0.027225 -17.985952 54.253735 -4.171484 -4.897347 -21.297617 10.582398 -3.855877 -39.474270 1.985205 10.459132 52.463291 4.102951 4.460845 -17.722282 14.443284 -0.209091 
-0.682625 47.809875 -5.310108 4.000000 0.000000 -14.726600 23.000000 0.000000 0.000000 0.000000 0.000000 0.000000 -16.000000 0.000000 0.000000 -13.000000 0.000000 -31.425299 2.021920 23.309700 -0.063351 -101.326950 -45.617466 15.991600 -128.245941 -7.015977 -50.852299 -35.030499 -32.726402 6.175700 -2.021920 -16.309700 -0.063351 103.231171 36.439262 11.991600 130.985550 12.409164 -40.852299 23.030500 34.491104 -15.824300 -37.207775 0.920380 -17.928173 54.587303 -4.155131 -4.929496 -21.928253 15.623561 -4.094785 -39.700764 3.120475 10.298809 51.894989 4.103671 4.410468 -16.438379 19.482620 -0.685310 
-0.679780 47.869820 -5.337816 3.986021 0.000000 -14.655499 22.881231 0.000000 0.000000 -0.014599 0.000000 0.000000 -16.000000 0.000000 0.000000 -12.970808 0.000000 -32.869400 2.021920 23.309700 -0.063351 -101.332390 -45.656525 15.991601 -128.262070 -7.028957 -50.852303 -30.508400 -32.722073 16.175699 -2.021920 -16.309700 -0.063351 103.235825 36.439030 11.991600 131.002319 12.402133 -40.852299 18.971701 34.502460 -1.666030 -37.093460 1.026106 -17.656097 54.215290 -4.150300 -4.893110 -21.503002 15.270259 -4.146565 -39.660366 3.011105 10.200602 51.758068 4.105418 4.389371 -16.229633 19.551289 -0.664976 
-0.674418 47.964169 -5.349930 3.970045 0.000000 -14.584399 22.696375 0.000000 0.000000 -0.046813 0.000000 0.000000 -15.999998 0.000000 0.000000 -12.906388 0.000000 -34.313499 2.021920 23.309698 -0.063351 -101.337830 -45.696396 15.991601 -128.278198 -7.041937 -50.852303 -35.030499 -32.717743 6.175700 -2.021920 -16.309700 -0.063351 103.240479 36.438797 11.991599 131.019089 12.395102 -40.852299 23.030500 34.513817 -15.824300 -36.947285 1.179693 -17.264038 53.764965 -4.163994 -4.829717 -21.012768 14.765652 -4.152795 -39.511982 2.853824 10.081288 51.522038 4.120965 4.374905 -15.967726 19.673267 -0.641900 
-0.667192 48.106346 -5.333899 3.956065 0.000000 -14.513299 22.481213 0.000000 0.000000 -0.094204 0.000000 0.000000 -15.999998 0.000000 0.000000 -12.811617 0.000000 -35.757599 2.021920 23.309698 -0.063351 -101.343262 -45.736870 15.991600 -128.294342 -7.054917 -50.852303 -30.870199 -32.713417 16.175699 -2.021920 -16.309702 -0.063351 103.245125 36.438568 11.991600 131.035858 12.388071 -40.852303 18.971701 34.525177 -1.320700 -36.633423 1.384357 -16.771812 53.088760 -4.167538 -4.770008 -20.477337 14.203761 -4.132702 -39.273994 2.671086 9.941031 51.071796 4.117927 4.323833 -15.573019 19.843613 -0.611433 
-0.658757 48.309780 -5.277167 3.948076 0.000000 -14.442200 22.271523 0.000000 0.000000 -0.154334 0.000000 0.000000 -15.999997 0.000000 0.000000 -12.691367 0.000000 -37.201698 2.021920 23.309696 -0.063351 -101.348694 -45.777729 15.991599 -128.310486 -7.067897 -50.852299 -35.030499 -32.709091 6.175700 -2.021920 -16.309704 -0.063351 103.249771 36.438339 11.991601 131.052628 12.381041 -40.852306 23.030500 34.536537 -15.824300 -36.147385 1.615243 -16.239429 52.216869 -4.183102 -4.669598 -19.927256 13.556653 -4.063782 -38.654568 2.415678 9.793469 50.170979 4.128356 4.210197 -15.105186 20.071716 -0.575983 
-0.649770 48.587902 -5.167181 3.950073 0.000000 -14.371099 22.103086 0.000000 0.000000 -0.224764 0.000000 0.000000 -15.999996 0.000000 0.000000 -12.550514 0.000000 -38.645798 2.021920 23.309694 -0.063351 -101.354134 -45.818779 15.991598 -128.326614 -7.080877 -50.852295 -31.232000 -32.704762 16.175699 -2.021920 -16.309702 -0.063351 103.254425 36.438107 11.991600 131.069397 12.374009 -40.852303 19.324600 34.547894 -0.975379 -35.544853 1.945177 -15.681264 51.697109 -4.202126 -4.611627 -19.906996 12.874021 -3.982512 -37.854740 2.146652 9.608113 48.917042 4.134596 4.073888 -14.491150 20.352489 -0.552381 
-0.640886 48.954132 -4.991390 3.966050 0.000000 -14.299999 22.011686 0.000000 0.000000 -0.303056 0.000000 0.000000 -15.999997 0.000000 0.000000 -12.393934 0.000000 -40.089897 2.021920 23.309696 -0.063351 -101.359573 -45.859810 15.991598 -128.342743 -7.093857 -50.852295 -35.030499 -32.700432 6.175700 -2.021920 -16.309700 -0.063351 103.259079 36.437874 11.991600 131.086151 12.366978 -40.852299 23.030500 34.559250 -15.824300 -34.831940 2.067137 -15.099980 50.532230 -4.189590 -4.482365 -19.383663 12.286225 -3.745189 -37.131466 1.826012 9.375613 48.338005 4.156035 4.012556 -14.517629 20.686172 -0.551553 
-0.632759 49.421894 -4.737237 4.000000 0.000000 -14.228900 22.033100 0.000000 0.000000 -0.386773 0.000000 0.000000 -16.000000 0.000000 0.000000 -12.226500 0.000000 -41.534000 2.021920 23.309700 -0.063351 -101.365005 -45.900612 15.991600 -128.358887 -7.106837 -50.852299 -31.051100 -32.696106 16.175699 -2.021920 -16.309700 -0.063351 103.263725 36.437645 11.991600 131.102921 12.359947 -40.852299 19.148199 34.570610 -0.975379 -33.415985 2.366130 -14.567344 48.209400 -4.203568 -4.244123 -18.487726 11.697306 -3.549021 -35.588337 1.473246 9.216400 45.859310 4.155015 3.739181 -13.588630 21.033756 -0.475306 
-0.626057 49.991047 -4.400838 4.049739 0.000000 -13.514616 22.159166 0.000000 0.000000 -0.473673 0.000000 0.000000 -16.000002 0.000000 0.000000 -12.052690 0.000000 -36.247055 2.021920 23.309700 -0.063351 -101.370438 -45.940975 15.991601 -128.375031 -7.119817 -50.852295 -35.030499 -32.691780 6.175700 -2.021920 -16.309702 -0.063351 103.268372 36.437416 11.991600 131.119690 12.352917 -40.852303 23.030500 34.581970 -15.824300 -31.542610 2.620011 -14.070089 45.033779 -4.213667 -3.895168 -17.326056 10.500475 -3.308093 -33.488045 0.948196 9.041908 42.655106 4.140577 3.384212 -12.644161 20.839430 -0.314770 
-0.621509 50.607155 -4.012970 4.088369 0.000000 -11.780152 22.205982 0.000000 0.000000 -0.562311 0.000000 0.000000 -16.000002 0.000000 0.000000 -11.875401 0.000000 -23.149633 2.021920 23.309700 -0.063351 -101.375877 -45.980690 15.991601 -128.391159 -7.132797 -50.852295 -31.232000 -32.687450 16.175699 -2.021920 -16.309702 -0.063351 103.273026 36.437183 11.991599 131.136444 12.345885 -40.852303 19.501101 34.593327 -1.148040 -29.524641 2.732252 -13.629401 41.348595 -4.190515 -3.487116 -15.898114 8.420561 -3.032465 -31.087759 0.241360 8.812758 39.096336 4.118599 2.994494 -11.772866 19.783714 -0.080435 
-0.619855 51.202198 -3.613081 4.082814 0.000000 -9.478119 21.945707 0.000000 0.000000 -0.651435 0.000000 0.000000 -16.000002 0.000000 0.000000 -11.697138 0.000000 -9.636093 2.021920 23.309702 -0.063351 -101.381317 -46.019508 15.991601 -128.407288 -7.145777 -50.852299 -31.865101 -32.683121 16.175699 -2.021920 -16.309700 -0.063351 103.277679 36.436951 11.991599 131.153198 12.338854 -40.852299 21.337200 34.604683 -2.095280 -27.384926 2.787398 -13.216844 37.358524 -4.139371 -3.053314 -14.287736 5.781743 -2.809912 -28.457083 -0.511713 8.536705 35.263313 4.054915 2.577194 -10.854119 18.185564 0.158798 
-0.621834 51.708183 -3.240614 4.000000 0.000000 -7.061130 21.150499 0.000000 0.000000 -0.739799 0.000000 0.000000 -16.000000 0.000000 0.000000 -11.520400 0.000000 -3.100790 2.021920 23.309700 -0.063351 -101.386749 -46.057159 15.991600 -128.423431 -7.158756 -50.852299 -32.498199 -32.678795 16.175699 -2.021920 -16.309700 -0.063351 103.282326 36.436722 11.991600 131.169968 12.331823 -40.852299 23.173300 34.616043 -3.042520 -25.248547 2.824629 -12.846099 33.475735 -4.060800 -2.631260 -12.729866 3.057248 -2.627893 -25.975151 -1.179280 8.215750 31.890759 3.967609 2.229653 -10.143305 16.410622 0.341495 
